# xmcd
#
# Track frame offsets: 
#        150
#        17977
#        30618
#        59942
#        74635
#        98441
#        120409
#        137519
#        155959
#
# Disc length: 2353 seconds
#
# Revision: 0
# Processed by: cddbd v1.5.1PL0 Copyright (c) Steve Scherf et al.
# Submitted via: ExactAudioCopy v0.95a3
#
DISCID=80092f09
DTITLE=Geir Engen - The Long Road
DYEAR=2002
DGENRE=Country
TTITLE0=My Hometown
TTITLE1=What's The Matter
TTITLE2=United We Stand
TTITLE3=Ordinary Man
TTITLE4=Little Friend
TTITLE5=Run Away
TTITLE6=Let The Good Times Come
TTITLE7=Get Up And Try
TTITLE8=The Long Road
EXTD=
EXTT0=
EXTT1=
EXTT2=
EXTT3=
EXTT4=
EXTT5=
EXTT6=
EXTT7=
EXTT8=
PLAYORDER=
